<?xml version="1.0" standalone="no"?>
<!DOCTYPE svg PUBLIC "-//W3C//DTD SVG 20010904//EN"
 "http://www.w3.org/TR/2001/REC-SVG-20010904/DTD/svg10.dtd">
<svg version="1.0" xmlns="http://www.w3.org/2000/svg"
 width="512.000000pt" height="512.000000pt" viewBox="0 0 512.000000 512.000000"
 preserveAspectRatio="xMidYMid meet">
<metadata>
Created by potrace 1.11, written by Peter Selinger 2001-2013
</metadata>
<g transform="translate(0.000000,512.000000) scale(0.100000,-0.100000)"
fill="#000000" stroke="none">
<path d="M1580 4540 c-76 -15 -127 -17 -210 -8 -43 4 -100 -12 -149 -43 -27
-16 -53 -29 -60 -29 -6 0 -11 -4 -11 -10 0 -5 -7 -10 -15 -10 -9 0 -29 -14
-45 -30 -17 -17 -30 -29 -30 -26 0 9 -105 -98 -131 -134 -15 -19 -43 -53 -63
-74 -19 -22 -34 -42 -31 -44 4 -4 -4 -15 -33 -47 -7 -8 -10 -15 -5 -15 4 0 4
-4 -2 -8 -12 -8 -45 -78 -45 -93 0 -6 -19 -50 -42 -97 -24 -48 -43 -89 -43
-92 -3 -32 -94 -155 -115 -155 -10 0 -94 -67 -133 -107 -21 -21 -42 -38 -47
-38 -6 0 -11 -4 -11 -10 -1 -5 -2 -13 -3 -17 -1 -5 -33 -40 -72 -79 -39 -40
-81 -93 -93 -118 -13 -25 -27 -48 -32 -51 -19 -12 -50 -164 -49 -245 0 -25 7
-65 10 -65 1 0 4 -13 6 -30 8 -60 10 -71 18 -83 4 -6 4 -16 1 -22 -3 -5 -1
-10 4 -10 6 0 10 -3 9 -7 -7 -24 72 -139 86 -126 3 3 6 1 6 -5 0 -7 7 -20 15
-29 8 -10 16 -22 16 -28 3 -26 103 -139 154 -176 74 -52 104 -85 126 -141 6
-16 15 -28 20 -28 5 0 9 -9 9 -20 0 -11 7 -20 16 -20 8 0 13 -4 10 -9 -4 -5
-1 -22 5 -38 6 -15 10 -30 9 -32 -1 -2 2 -7 7 -10 5 -3 17 -23 26 -43 43 -95
50 -109 72 -133 13 -14 22 -25 20 -25 -3 0 11 -17 30 -37 19 -20 37 -44 40
-53 3 -8 21 -28 41 -45 20 -16 62 -52 93 -80 32 -27 67 -57 78 -66 12 -10 25
-23 29 -31 10 -16 72 -64 113 -87 16 -9 49 -27 73 -41 23 -13 45 -25 48 -25
19 -5 48 -22 64 -37 10 -9 23 -15 28 -12 4 3 8 1 8 -5 0 -9 133 -90 155 -94 5
-1 12 -4 15 -7 13 -13 73 -42 96 -46 25 -5 165 -63 174 -74 3 -3 16 -6 30 -8
13 -1 27 -6 30 -11 3 -5 20 -12 38 -16 18 -4 35 -12 38 -19 3 -7 11 -13 18
-13 8 0 57 -21 109 -46 53 -26 99 -47 102 -47 4 0 33 -15 64 -34 91 -55 151
-87 151 -81 0 4 7 -1 16 -9 8 -9 20 -14 25 -11 5 4 9 2 9 -3 0 -5 7 -9 15 -9
17 0 117 -44 125 -55 3 -3 12 -6 20 -5 13 1 156 -14 170 -18 68 -20 97 -29
105 -29 6 -1 37 -10 70 -20 33 -10 71 -19 85 -20 14 -1 31 -6 39 -10 10 -7 12
-5 6 5 -6 11 -5 12 6 2 7 -7 23 -13 35 -13 13 0 26 -5 29 -11 4 -6 13 -8 20
-5 7 2 16 2 19 -2 4 -3 14 -7 24 -8 9 -2 37 -8 62 -14 25 -7 55 -14 68 -16 41
-8 67 -13 127 -28 33 -8 62 -13 64 -11 2 3 12 0 23 -6 12 -6 128 -11 301 -11
264 -1 288 0 372 22 50 13 93 27 96 32 3 5 15 10 26 12 11 3 29 9 39 14 11 6
58 30 107 53 48 23 87 46 87 50 0 5 6 9 12 9 16 0 116 107 124 132 3 10 10 18
15 18 6 0 8 4 4 9 -3 5 1 15 8 23 14 14 49 84 54 108 4 17 3 215 -1 310 -3 67
-14 137 -25 155 -19 32 -35 255 -18 255 5 0 5 6 0 13 -10 16 -11 66 -1 94 4
13 4 23 0 23 -10 0 -9 202 1 218 5 6 5 12 0 12 -15 0 -7 252 11 300 8 25 16
53 16 63 0 9 5 17 11 17 5 0 7 5 4 10 -3 5 -3 16 2 22 4 7 8 15 8 18 2 10 58
115 64 120 13 9 48 76 55 103 3 15 14 36 23 47 18 20 22 37 28 115 11 158 -4
459 -23 440 -3 -2 -10 5 -17 18 -27 52 -41 72 -62 90 -13 10 -23 24 -23 30 0
7 -13 18 -28 25 -16 6 -38 21 -50 32 -12 11 -24 20 -27 20 -18 0 -76 79 -91
123 -22 63 -23 69 -30 132 -12 105 -30 152 -80 209 -27 31 -53 56 -57 56 -5 0
-6 4 -2 9 3 5 -3 12 -14 16 -10 3 -31 16 -47 30 -15 13 -47 34 -71 46 -24 12
-43 26 -43 30 0 4 -14 10 -30 14 -17 4 -36 12 -43 18 -36 33 -148 87 -192 93
-35 5 -75 14 -118 28 -23 8 -58 18 -77 22 -19 4 -42 9 -50 12 -8 2 -23 3 -32
3 -10 0 -18 3 -18 7 0 4 -17 8 -38 9 -40 2 -79 8 -109 17 -10 3 -38 6 -63 7
-25 1 -68 8 -96 15 -28 6 -104 12 -168 13 -127 0 -203 8 -212 22 -3 5 -52 9
-109 8 -57 0 -109 2 -115 6 -25 15 -86 17 -630 19 -495 2 -587 0 -660 -14z"/>
</g>
</svg>
